<?xml version="1.0" encoding="utf-8"?>
<!-- Generator: Adobe Illustrator 19.2.0, SVG Export Plug-In . SVG Version: 6.00 Build 0)  -->
<svg version="1.1" id="Camada_1" xmlns="http://www.w3.org/2000/svg" xmlns:xlink="http://www.w3.org/1999/xlink" x="0px" y="0px"
	 viewBox="0 0 210 37.2" style="enable-background:new 0 0 210 37.2;" xml:space="preserve">
<style type="text/css">
	.st0{fill:#FFFFFF;}
</style>
<title>donamaid</title>
<g id="Camada_2">
	<g id="Camada_1-2">
		<path class="st0" d="M3.6,0h29.7c2,0,3.6,1.6,3.6,3.6v29.9c0,2-1.6,3.6-3.6,3.6H3.6c-2,0-3.6-1.6-3.6-3.6V3.6C0,1.6,1.6,0,3.6,0z"
			/>
		<path class="st0" d="M181.4,10.6c0.4,0.4,0.9,0.6,1.4,0.5c0.7,0,1.5-0.3,2-0.8c0.9-0.7,1.4-1.8,1.4-2.9c0-0.9-0.3-1.8-0.9-2.5
			c-0.5-0.7-1.3-1.1-2.1-1c-1,0.1-1.5,1.1-1.8,1.7c-0.4,0.9-0.6,1.8-0.5,2.8c0,0.4,0,0.8,0.1,1.2C181.1,9.9,181.2,10.3,181.4,10.6z"
			/>
		<path class="st0" d="M210,24.1c0-0.2-0.1-0.3-0.2-0.5c-0.2-0.3-0.4-0.5-0.7-0.6c-1-0.3-3,3.5-5,4.2c-0.2,0.1-0.4,0.1-0.6,0
			c-0.7-0.3-0.8-1.8-0.8-2.5c0-0.5,0-1.3,0.1-2.2c0.2-2.4,0.6-4.9,1.1-7.3c0.2-0.9,0.6-1.8,1.1-2.6l0.2-0.2c0.3-0.4,0.6-0.9,0.8-1.4
			c0.3-0.5,0.5-1,0.6-1.5c0.2-0.5,0.3-1.1,0.2-1.7c-0.1-0.7-0.3-1.5-0.8-2.1c-0.6-1-1.2-1.4-1.9-1.4c-0.5,0.1-1,0.4-1.3,0.8
			c-1.3,1.6-2.4,4.5-3.4,9.2l-0.9-0.1c-1.1-0.1-1.9-0.1-2.1-0.1c-2.2,0.1-4.2,0.9-5.8,2.4c-2.2,1.9-3.6,4.6-3.9,7.5l0,0l-1,1.1
			c-0.5,0.5-1.1,1-1.6,1.5c-0.3,0.4-0.8,0.6-1.3,0.7c-0.3,0-0.6-0.1-0.9-0.3c-0.3-0.3-0.4-0.6-0.4-1c0.2-1.3,0.4-2.6,0.8-3.9
			c0.5-1.7,0.7-3.4,0.9-5.1c0-0.7-0.1-1.5-0.5-2.1c-0.4-0.9-1-1.4-1.7-1.4c-1.2,0-2.2,1.5-3.2,4.6c-0.5,1.6-0.8,3.3-0.9,5
			c-0.2,0.2-0.4,0.3-0.6,0.5c-2.4,2.5-3.9,3.8-4.5,3.8s-0.8-1-0.8-3c0-1.3,0-2.5,0.2-3.8c0.1-0.5,0.2-1,0.5-1.5
			c0.4-0.7,0.8-1.5,1.1-2.2c-0.1-0.8-0.5-1.6-1.1-2.1c-0.6-0.7-1.5-1.1-2.4-1.1c-0.4,0-0.8,0.4-1.1,1.1c-0.8-0.4-1.8-0.6-2.7-0.6
			c-1.1,0-2.1,0.2-3.2,0.5c-1.2,0.4-2.3,1.1-3.2,2c-2.2,1.9-3.6,4.6-3.9,7.6l-1,1.1c-0.5,0.5-1,1-1.6,1.5c-0.4,0.4-0.8,0.6-1.3,0.7
			c-0.2,0-0.3-0.1-0.3-0.5c0-0.4,0.1-0.8,0.2-1.3c0.1-0.5,0.3-1.2,0.5-1.9s0.3-1.5,0.5-2.2c0.1-0.9,0.2-1.8,0.2-2.7
			c0-0.9-0.3-1.8-1-2.5c-0.8-0.7-1.9-1.1-2.9-1c-2.2,0-4.2,1-5.4,2.7v-0.4c0-1-0.5-2-1.3-2.6c-0.8-0.7-1.8-1-2.8-1
			c-1.6,0-3.1,0.8-4.1,2.2c-0.1-0.3-0.3-0.6-0.4-0.9c-0.7-1.3-1.4-1.9-2.2-1.9c-0.5,0-1,0.3-1.4,1c-1.3,1.9-2.1,4.1-2.4,6.4
			c-0.1,0.8-0.2,1.6-0.3,2.4c-0.2,0.1-0.3,0.3-0.5,0.5c-2.4,2.5-3.9,3.8-4.5,3.8s-0.8-1-0.8-3c0-1.4,0-2.5,0.1-3.5
			c0.1-0.7,0.3-1.4,0.6-2c0.4-0.6,0.7-1.3,1-2c-0.1-0.8-0.5-1.6-1.1-2.1c-0.6-0.7-1.5-1.1-2.4-1.1c-0.4,0-0.8,0.4-1.2,1.1
			c-0.8-0.4-1.8-0.6-2.7-0.6c-1.1,0-2.1,0.2-3.2,0.5c-1.2,0.4-2.3,1.1-3.2,2c-2.2,1.9-3.6,4.6-3.9,7.6l-1,1.1c-0.5,0.5-1,1-1.6,1.5
			c-0.4,0.4-0.8,0.6-1.3,0.7c-0.3,0-0.4-0.2-0.4-0.6c0-0.5,0.1-1,0.2-1.5c0.2-0.6,0.4-1.6,0.8-2.9c0.3-1.3,0.5-2.7,0.5-4.1
			c0.1-1.2-0.4-2.3-1.3-3.1c-2.5-1.7-5.8-1.4-8,0.7c-0.8-1.7-1.6-2.5-2.4-2.5c-0.6,0.1-1.1,0.4-1.4,1c-0.7,1.1-1.3,2.4-1.8,3.6
			c-1.3,0.5-2.6,0.9-3.9,1.2c-0.4-1.6-1.3-3.1-2.6-4.2c-0.7-0.7-1.6-1.1-2.6-1.2h-0.2c-0.2,0-1,0.1-1,0.1c-0.3,0-0.7,0-1,0
			c-2.7-0.1-5.4,1-7.2,3.1c-1.6,1.9-2.6,4.2-2.7,6.7l0,0c0,0,0,0.1,0,0.1c-0.4,0.5-2.2,2.9-3.6,3.3c-0.2,0.1-0.4,0.1-0.6,0
			c-0.7-0.3-0.8-1.8-0.8-2.5c0-0.7,0.1-1.5,0.2-2.2c0.3-2.8,0.7-5.5,1.4-8.2c0.1-0.3,0.2-0.7,0.4-0.9l0.6-0.9
			c0.3-0.4,0.6-0.9,0.8-1.4c0.3-0.5,0.5-1,0.6-1.5c0.2-0.5,0.3-1.1,0.2-1.7c-0.1-0.7-0.3-1.5-0.8-2.1c-0.6-1-1.2-1.4-2-1.4
			c-0.5,0.1-1,0.4-1.3,0.8c-1.3,1.6-2.4,4.5-3.4,9.2l-1-0.1c-1-0.1-1.9-0.1-2.1-0.1c-2.2,0.1-4.3,0.9-5.8,2.4
			c-2.7,2.4-4.2,6-4.1,9.7c-0.1,1.4,0.5,2.8,1.5,3.9c1.1,1.1,2.6,1.7,4.1,1.6c2.6,0.1,5.1-1.2,6.4-3.4c0.1,0.3,0.7,2.7,2.6,3.2
			c0.5,0.1,1,0.2,1.5,0.1c1.7-0.2,2.9-1.3,4.1-2.5c0.5-0.4,0.9-0.9,1.3-1.4c0.3,0.7,0.8,1.4,1.4,2c1.3,1.4,3.3,2,6,2
			c0.8,0,1.5-0.1,2.3-0.3l0.4-0.1c1.9-0.7,3.6-1.9,4.8-3.5c0.1-0.1,0.2-0.3,0.3-0.4v-0.1c0.3-0.5,0.6-0.9,0.8-1.4
			c0.3-0.6,0.6-1.3,0.8-2c0.2-0.5,0.3-1,0.4-1.6c0-0.1,0-0.3,0-0.4l3-0.7c-0.1,0.6-0.2,1.3-0.2,2.1C88,24.5,88,25.9,88,27.3
			c0,0.2,0,0.1,0,0.7c0,1,0.1,2,0.3,2.9c0.1,0.6,0.7,0.9,1.2,0.9c0.3,0,0.6-0.1,0.8-0.2c2-0.8,3.1-1.6,3.1-2.4
			c-0.1-0.6-0.2-1.2-0.4-1.8c-0.2-0.8-0.4-1.7-0.4-2.5v-0.2c0.3-1.6,1-3.2,1.8-4.6c0.9-1.5,1.8-2.2,2.8-2.2s1.5,0.4,1.5,1.3
			c0,0.5-0.1,1-0.2,1.5c-0.1,0.5-0.3,1.3-0.6,2.4c-0.3,1.2-0.4,2.4-0.4,3.6c0,3.1,1,4.6,2.9,4.6c2.9,0,0.1,0,0.1,0
			c0.8,0,2.5-0.8,5.3-2.5c0.3-0.3,0.6-0.6,0.8-0.9c0.3,0.7,0.7,1.3,1.2,1.9c1.1,1.1,2.6,1.7,4.1,1.6c1.4,0.1,2.8-0.3,4-1
			c1-0.6,1.9-1.5,2.5-2.5c0.4,2.2,1.3,3.4,2.6,3.4c1,0,2-0.2,2.9-0.7c1-0.5,1.9-1,2.7-1.8c0.5-0.5,1-1,1.5-1.6V28c0,1,0.1,2,0.3,2.9
			c0.2,0.6,0.7,0.9,1.2,0.9c0.3,0,0.6-0.1,0.8-0.2c2-0.8,3.1-1.6,3.1-2.4c-0.1-0.6-0.2-1.2-0.4-1.8c-0.3-0.9-0.4-1.9-0.4-2.8
			c0.2-1.5,0.7-2.9,1.5-4.1c1-1.8,1.9-2.6,2.6-2.6s1.1,0.4,1.1,1.2c0,0.4,0,0.9-0.1,1.5s-0.1,1.3-0.2,2.1c-0.1,0.8-0.1,1.7-0.2,2.6
			s-0.1,2-0.1,3c0,0.9,0.1,1.7,0.4,2.5c0.1,0.6,0.7,0.9,1.2,0.9c0.3,0,0.6-0.1,0.8-0.2c2-0.8,3.1-1.6,3.1-2.4
			c-0.1-0.6-0.2-1.2-0.4-1.8c-0.2-0.8-0.4-1.7-0.4-2.5v-0.1c0.3-1.4,0.9-2.7,1.7-3.9c0.8-1.2,1.5-1.8,2.1-1.8c0.9,0,1.4,0.4,1.4,1.2
			c0,1-0.2,2.1-0.4,3.1c-0.2,1.1-0.4,2.2-0.4,3.3c0,3.2,0.9,4.7,2.6,4.7c2,0,4-0.9,5.4-2.3c0.3-0.3,0.6-0.6,0.9-0.9
			c0.8,2.2,2.9,3.6,5.3,3.5c1.4,0.1,2.8-0.3,4.1-1c1-0.7,1.8-1.5,2.4-2.6c0.4,2.2,1.3,3.4,2.6,3.4c1,0,2-0.2,2.9-0.7
			c1-0.5,1.9-1,2.7-1.8c0.7-0.6,1.3-1.3,1.8-2c0.4,3,1.5,4.5,3.5,4.5c2.1,0,4-0.9,5.4-2.4c0.3-0.3,0.6-0.6,0.9-0.9l0,0
			c0.3,0.7,0.7,1.3,1.2,1.9c1.1,1.1,2.6,1.7,4.1,1.6c2.6,0.1,5.1-1.2,6.4-3.4c0.1,0.3,0.7,2.7,2.6,3.2c0.5,0.1,1,0.2,1.4,0.1
			c0.6-0.1,1.8-0.3,4.1-2.5C209.9,26.1,210.1,24.5,210,24.1z M58.6,22.5c0,1-0.3,2-0.9,2.9c-0.3,0.5-0.7,0.9-1.1,1.2
			c-0.7,0.6-1.6,0.9-2.5,0.9c-1.4,0-2-0.9-2-2.8c-0.1-2.1,0.7-4.1,2.2-5.6c1.3-1.4,3.1-2.4,5-2.8C58.9,18.5,58.7,20.5,58.6,22.5z
			 M82.2,19.1c-0.9,0.1-1.7-0.2-2.3-0.8c-0.2-0.2-0.4-0.5-0.5-0.7c-0.1-0.2-0.1-0.5,0-0.7c0.4-0.4,0.8-0.3,1.4,0.2
			C81.4,17.6,81.9,18.3,82.2,19.1z M74,26.6c-0.7-0.8-1-1.7-1-2.7c-0.1-1.9,0.7-3.8,2-5.1c0.1-0.1,0.5-0.5,0.8-0.7
			c-0.1,1.1,0.1,2.1,0.7,3c0.7,1,1.8,1.7,3.1,2c0.9,0.2,1.9,0.2,2.8-0.1c-0.1,0.4-0.2,0.8-0.4,1.2c-0.4,0.7-0.9,1.4-1.5,2
			c-0.3,0.3-0.6,0.6-1,0.8c-0.9,0.5-1.9,0.8-2.9,0.7C75.6,27.7,74.7,27.3,74,26.6z M118.4,22.6c0,1-0.3,2-0.9,2.9
			c-0.3,0.5-0.7,0.9-1.1,1.2c-0.7,0.6-1.6,0.9-2.5,0.9c-1.4,0-2.1-0.9-2.1-2.8c-0.1-2.1,0.7-4.1,2.2-5.6c1.3-1.4,3.1-2.4,5-2.8
			C118.7,18.5,118.5,20.5,118.4,22.6L118.4,22.6z M167.1,22.6c0,1-0.3,2-0.9,2.9c-0.3,0.5-0.7,0.9-1.1,1.2c-0.7,0.6-1.6,0.9-2.5,0.9
			c-1.4,0-2-0.9-2-2.8c-0.1-2.1,0.7-4.1,2.2-5.6c1.3-1.4,3.1-2.4,5-2.8C167.4,18.5,167.2,20.5,167.1,22.6L167.1,22.6z M198.5,22.6
			c0,1-0.3,2-0.9,2.9c-0.3,0.5-0.7,0.9-1.1,1.2c-0.7,0.6-1.6,0.9-2.5,0.9c-1.4,0-2.1-0.9-2.1-2.8c-0.1-2.1,0.7-4.1,2.2-5.6
			c1.3-1.4,3.1-2.4,5-2.8C198.8,18.5,198.6,20.5,198.5,22.6L198.5,22.6z"/>
		<path class="st0" d="M30.4,24.9c0-0.2-0.1-0.4-0.2-0.5c-0.2-0.3-0.4-0.5-0.7-0.6c-0.9-0.3-2.5,2.6-4.3,3.8l0,0l-0.4,0.2
			c-0.1,0.1-0.2,0.1-0.4,0.1h-0.1l0,0h-0.1h-0.1h-0.1c-0.7-0.3-0.8-1.8-0.8-2.5c0-0.5,0-1.3,0.1-2.2l0.1-1c0-0.1,0-0.2,0-0.3
			l0.1-0.7l0.1-0.4l0.1-0.6l0.1-0.4c0-0.2,0.1-0.4,0.1-0.6l0.1-0.4c0-0.2,0.1-0.4,0.1-0.6S24,18,24,17.8s0.1-0.4,0.1-0.6l0.1-0.3
			c0.1-0.3,0.1-0.6,0.2-0.9l0,0l0,0c0.2-0.9,0.6-1.8,1.1-2.5l0.2-0.3c0.3-0.4,0.6-0.9,0.8-1.4c0.3-0.5,0.5-1,0.6-1.5
			c0.2-0.6,0.3-1.1,0.3-1.7c-0.1-0.7-0.3-1.5-0.8-2.1c-0.6-1-1.2-1.4-1.9-1.4c-0.5,0.1-1,0.3-1.3,0.8c-1.3,1.5-2.4,4.5-3.4,9.1
			l-1-0.1c-1-0.1-1.9-0.1-2.1-0.1h-0.4h-0.4l0,0c-1.9,0.2-3.7,1.1-5.1,2.4c-2.8,2.4-4.2,6-4.1,9.7c0,1.5,0.5,2.9,1.6,3.9
			c1.1,1.1,2.6,1.7,4.1,1.6c0.9,0,1.9-0.1,2.8-0.4l0,0c0.4-0.1,0.7-0.3,1.1-0.5l0,0l0.5-0.3h0.1c0.1-0.1,0.3-0.2,0.4-0.3l0,0
			c0.2-0.1,0.3-0.3,0.4-0.4l0,0c0.1-0.1,0.2-0.2,0.4-0.4l0.1-0.1c0.1-0.1,0.2-0.2,0.3-0.3l0.1-0.1c0.1-0.2,0.2-0.3,0.3-0.5
			c0.1,0.3,0.7,2.7,2.6,3.3l0.3,0.1H22h0.2h0.5h0.4c0.6-0.1,1.8-0.3,4.1-2.5C30.2,26.9,30.4,25.3,30.4,24.9z M19.4,18.8
			c-0.2,1.1-0.3,2.1-0.4,3c0,0.5-0.1,1-0.1,1.5c0,1-0.4,2-0.9,2.9c-0.3,0.5-0.7,0.9-1.1,1.3l-0.3,0.2c-0.1,0.1-0.2,0.1-0.3,0.2l0,0
			c-0.2,0.1-0.4,0.2-0.6,0.3l0,0c-0.4,0.2-0.8,0.3-1.3,0.3c-1.4,0-2.1-0.9-2.1-2.8c-0.1-2.1,0.7-4.1,2.2-5.7
			c0.4-0.4,0.8-0.8,1.3-1.1l0,0c0.2-0.2,0.5-0.4,0.8-0.5l0.1-0.1l0.3-0.2l0.2-0.1l0.3-0.1l0.5-0.2l0.2-0.1l0.4-0.1l0.2-0.1l0.6-0.1
			C19.5,17.8,19.4,18.3,19.4,18.8L19.4,18.8z"/>
	</g>
</g>
</svg>
