<svg xmlns="http://www.w3.org/2000/svg" xmlns:xlink="http://www.w3.org/1999/xlink" viewBox="0 0 210 37.16"><defs><style>.cls-1{fill:url(#Gradiente_sem_nome_12);}.cls-2{fill:url(#Gradiente_sem_nome_16);}.cls-3{fill:url(#Gradiente_sem_nome_7);}.cls-4{fill:#fff;}</style><linearGradient id="Gradiente_sem_nome_12" x1="1.01" y1="36.06" x2="35.95" y2="1.11" gradientUnits="userSpaceOnUse"><stop offset="0" stop-color="#5b317e"/><stop offset="1" stop-color="#a11a65"/></linearGradient><linearGradient id="Gradiente_sem_nome_16" x1="180.86" y1="10.06" x2="185.69" y2="5.23" gradientUnits="userSpaceOnUse"><stop offset="0" stop-color="#961868"/><stop offset="0.6" stop-color="#a11a65"/><stop offset="1" stop-color="#a11a65"/></linearGradient><linearGradient id="Gradiente_sem_nome_7" x1="46.78" y1="18.05" x2="210" y2="18.05" xlink:href="#Gradiente_sem_nome_12"/></defs><title>donamaid</title><g id="Camada_2" data-name="Camada 2"><g id="Camada_1-2" data-name="Camada 1"><rect class="cls-1" width="36.96" height="37.16" rx="3.61" ry="3.61"/><path class="cls-2" d="M181.44,10.64a1.93,1.93,0,0,0,1.43.53,3.11,3.11,0,0,0,2-.82,3.87,3.87,0,0,0,1.39-2.94,3.68,3.68,0,0,0-.91-2.51,2.55,2.55,0,0,0-2.08-1.05c-1,.13-1.53,1.15-1.82,1.7a5.51,5.51,0,0,0-.52,2.76A5.76,5.76,0,0,0,181,9.49,2.64,2.64,0,0,0,181.44,10.64Z"/><path class="cls-3" d="M210,24.09a1.71,1.71,0,0,0-.2-.5,1.54,1.54,0,0,0-.66-.6c-1-.31-3,3.51-5,4.18a.81.81,0,0,1-.56,0c-.73-.26-.83-1.77-.83-2.49,0-.55,0-1.29.14-2.2A59.55,59.55,0,0,1,204,15.2a7.27,7.27,0,0,1,1.13-2.56l.17-.24a12.89,12.89,0,0,0,.84-1.37,8.55,8.55,0,0,0,.63-1.54,5.72,5.72,0,0,0,.25-1.69,3.88,3.88,0,0,0-.79-2.06c-.6-1-1.25-1.45-1.94-1.45a1.78,1.78,0,0,0-1.3.8c-1.29,1.56-2.4,4.52-3.39,9.16l-.95-.13c-1.05-.12-1.88-.15-2.07-.15a8.88,8.88,0,0,0-5.83,2.42,11.58,11.58,0,0,0-3.93,7.53v0l-1,1.07q-.8.81-1.59,1.5a2.25,2.25,0,0,1-1.31.68,1.39,1.39,0,0,1-.9-.29,1.25,1.25,0,0,1-.38-1,23.83,23.83,0,0,1,.83-3.93,25.86,25.86,0,0,0,.86-5.09,4.68,4.68,0,0,0-.46-2.14c-.41-.93-1-1.4-1.66-1.4-1.18,0-2.23,1.54-3.17,4.62a21.93,21.93,0,0,0-.85,5,4.48,4.48,0,0,0-.55.54c-2.4,2.5-3.92,3.75-4.54,3.75s-.76-1-.76-3a36.09,36.09,0,0,1,.17-3.81,4,4,0,0,1,.49-1.49,21.7,21.7,0,0,0,1.11-2.21A3.07,3.07,0,0,0,172,14.6a3.41,3.41,0,0,0-2.39-1.1c-.43,0-.82.35-1.15,1.05a5.63,5.63,0,0,0-2.7-.58,10.6,10.6,0,0,0-3.16.47,9.64,9.64,0,0,0-3.22,2,11.63,11.63,0,0,0-3.93,7.55l-1,1.07c-.53.54-1,1-1.58,1.5a2.29,2.29,0,0,1-1.33.68c-.2,0-.29-.15-.29-.45a5.41,5.41,0,0,1,.21-1.26c.15-.55.31-1.17.49-1.86s.34-1.45.49-2.24a15.59,15.59,0,0,0,.21-2.68,3.38,3.38,0,0,0-1-2.49,4,4,0,0,0-2.95-1A6.64,6.64,0,0,0,143.26,18v-.4A3.21,3.21,0,0,0,142,15a4.18,4.18,0,0,0-2.77-1,5.1,5.1,0,0,0-4.07,2.16,5.83,5.83,0,0,0-.43-.94c-.68-1.3-1.41-1.95-2.2-1.95-.5,0-1,.34-1.4,1a16.46,16.46,0,0,0-2.45,6.35,22.28,22.28,0,0,0-.26,2.4,3.3,3.3,0,0,0-.46.46c-2.4,2.5-3.92,3.75-4.54,3.75s-.76-1-.76-3c0-1.37,0-2.52.14-3.48a5.23,5.23,0,0,1,.61-2,20.3,20.3,0,0,0,1-2,3.07,3.07,0,0,0-1.14-2.08,3.41,3.41,0,0,0-2.39-1.1c-.43,0-.82.35-1.15,1.05a5.63,5.63,0,0,0-2.7-.58,10.48,10.48,0,0,0-3.15.47,9.67,9.67,0,0,0-3.23,2,11.63,11.63,0,0,0-3.93,7.55l-1,1.07c-.52.54-1,1-1.58,1.5a2.29,2.29,0,0,1-1.33.68c-.27,0-.4-.19-.4-.58a6.24,6.24,0,0,1,.23-1.46c.16-.59.41-1.57.76-2.94a16.46,16.46,0,0,0,.52-4.07,3.9,3.9,0,0,0-1.26-3.1,6.33,6.33,0,0,0-8,.67c-.76-1.67-1.58-2.5-2.44-2.5a1.77,1.77,0,0,0-1.41,1,15.81,15.81,0,0,0-1.78,3.65,27.54,27.54,0,0,1-3.94,1.22A8.64,8.64,0,0,0,82.49,15a4.36,4.36,0,0,0-2.6-1.19h-.25c-.24,0-1,.13-1,.13-.32,0-.66,0-1,0A9.12,9.12,0,0,0,70.44,17a10.6,10.6,0,0,0-2.68,6.7h0c0,.05,0,.09,0,.13-.39.52-2.18,2.88-3.59,3.33a.9.9,0,0,1-.56,0c-.72-.26-.83-1.77-.83-2.49a21.21,21.21,0,0,1,.15-2.2,55.64,55.64,0,0,1,1.42-8.24,3,3,0,0,1,.42-.94l.64-.92A13,13,0,0,0,66.25,11a8.55,8.55,0,0,0,.63-1.54,5.72,5.72,0,0,0,.25-1.69,3.88,3.88,0,0,0-.79-2.06c-.6-1-1.25-1.45-2-1.45a1.76,1.76,0,0,0-1.29.8c-1.3,1.56-2.41,4.52-3.39,9.16l-1-.13c-1-.12-1.87-.15-2.06-.15a8.91,8.91,0,0,0-5.84,2.42,12.17,12.17,0,0,0-4.06,9.68,5.2,5.2,0,0,0,1.51,3.87,5.51,5.51,0,0,0,4.14,1.59,7.09,7.09,0,0,0,6.41-3.44c.08.33.7,2.69,2.59,3.25a3.2,3.2,0,0,0,1.45.07c1.7-.21,2.87-1.32,4.12-2.5a18.31,18.31,0,0,0,1.32-1.42,6.59,6.59,0,0,0,1.36,2c1.32,1.37,3.3,2.05,6,2.05a8.55,8.55,0,0,0,2.29-.31l.42-.13a10,10,0,0,0,4.77-3.47,3.89,3.89,0,0,0,.28-.39l0-.06a9.33,9.33,0,0,0,.78-1.43,14.57,14.57,0,0,0,.81-2,8,8,0,0,0,.37-1.57c0-.15,0-.29,0-.44L88.35,21c-.09.6-.16,1.31-.21,2.14A30.05,30.05,0,0,0,88,27.28c0,.23,0,.15,0,.67a9.23,9.23,0,0,0,.34,2.93,1.25,1.25,0,0,0,1.24.93,2.35,2.35,0,0,0,.83-.18c2-.79,3.06-1.6,3.06-2.42a7.93,7.93,0,0,0-.38-1.8,9.14,9.14,0,0,1-.38-2.53v-.25A14.23,14.23,0,0,1,94.55,20Q95.9,17.8,97.4,17.8c1,0,1.49.43,1.49,1.3a6.64,6.64,0,0,1-.18,1.55c-.12.51-.3,1.32-.56,2.42a16.65,16.65,0,0,0-.37,3.65q0,4.62,2.88,4.62s.07,0,.14,0c.77,0,2.54-.82,5.33-2.46a11.1,11.1,0,0,0,.83-.86,5.17,5.17,0,0,0,1.19,1.88,5.43,5.43,0,0,0,4.08,1.59,7.27,7.27,0,0,0,4-1A7.82,7.82,0,0,0,118.73,28c.44,2.23,1.29,3.35,2.56,3.35a6.73,6.73,0,0,0,2.88-.68,11.15,11.15,0,0,0,2.68-1.75,9.93,9.93,0,0,0,1.46-1.6V28a9,9,0,0,0,.34,2.89,1.26,1.26,0,0,0,1.25.93,2.3,2.3,0,0,0,.82-.18c2-.79,3.06-1.6,3.06-2.42a7.74,7.74,0,0,0-.37-1.8,9.85,9.85,0,0,1-.38-2.84,9.35,9.35,0,0,1,1.47-4.15c1-1.75,1.85-2.62,2.6-2.62s1.11.41,1.11,1.23q0,.57-.09,1.5t-.18,2.13c-.06.81-.12,1.68-.18,2.64s-.09,2-.09,3a7.62,7.62,0,0,0,.35,2.55,1.24,1.24,0,0,0,1.24.93,2.4,2.4,0,0,0,.83-.18c2-.79,3.06-1.6,3.06-2.42a7.93,7.93,0,0,0-.38-1.8,9.14,9.14,0,0,1-.38-2.53v-.07a12.94,12.94,0,0,1,1.66-3.92c.77-1.22,1.46-1.83,2.09-1.83.91,0,1.36.4,1.36,1.2a18.88,18.88,0,0,1-.39,3.07,18.29,18.29,0,0,0-.4,3.28c0,3.16.87,4.73,2.6,4.73A7.79,7.79,0,0,0,154.72,29a10.62,10.62,0,0,0,.88-.91,5.31,5.31,0,0,0,5.28,3.48,7.31,7.31,0,0,0,4.05-1A7.82,7.82,0,0,0,167.38,28c.43,2.23,1.29,3.35,2.56,3.35a6.8,6.8,0,0,0,2.88-.68,11.15,11.15,0,0,0,2.68-1.75,10.2,10.2,0,0,0,1.77-2q.54,4.47,3.47,4.47A7.62,7.62,0,0,0,186.16,29a12.46,12.46,0,0,0,.88-.92h0a5.17,5.17,0,0,0,1.19,1.88,5.51,5.51,0,0,0,4.14,1.59,7.08,7.08,0,0,0,6.41-3.44c.08.33.71,2.69,2.6,3.25a3.15,3.15,0,0,0,1.44.07c.57-.07,1.82-.34,4.12-2.5C209.88,26.14,210.07,24.48,210,24.09ZM58.56,22.54a6.16,6.16,0,0,1-.86,2.93,4.51,4.51,0,0,1-1.1,1.25,4.07,4.07,0,0,1-2.47.94c-1.37,0-2.05-.93-2.05-2.78a7.78,7.78,0,0,1,2.16-5.63,9.4,9.4,0,0,1,5-2.82A52.14,52.14,0,0,0,58.56,22.54Zm23.61-3.45a2.9,2.9,0,0,1-2.3-.83,1.8,1.8,0,0,1-.48-.74.65.65,0,0,1,0-.71c.37-.39.84-.33,1.4.19A5.26,5.26,0,0,1,82.17,19.09ZM74,26.56A4,4,0,0,1,73,23.83a7,7,0,0,1,2-5.14c.14-.15.53-.45.83-.69a4.55,4.55,0,0,0,.72,3,5,5,0,0,0,3.07,2,5.43,5.43,0,0,0,2.79-.09A7.45,7.45,0,0,1,82,24.16a8.1,8.1,0,0,1-1.46,2,7.56,7.56,0,0,1-1,.82,5.37,5.37,0,0,1-2.9.72A3.4,3.4,0,0,1,74,26.56Zm44.43-4a6.16,6.16,0,0,1-.86,2.93,4.38,4.38,0,0,1-1.11,1.25,4,4,0,0,1-2.46.94c-1.37,0-2.06-.93-2.06-2.78a7.78,7.78,0,0,1,2.16-5.63,9.46,9.46,0,0,1,5-2.82A48.18,48.18,0,0,0,118.42,22.54Zm48.64,0a6.16,6.16,0,0,1-.86,2.93,4.51,4.51,0,0,1-1.1,1.25,4.07,4.07,0,0,1-2.47.94c-1.37,0-2-.93-2-2.78a7.78,7.78,0,0,1,2.16-5.63,9.4,9.4,0,0,1,5-2.82A52.14,52.14,0,0,0,167.06,22.54Zm31.44,0a6.29,6.29,0,0,1-.87,2.93,4.36,4.36,0,0,1-1.1,1.25,4.07,4.07,0,0,1-2.46.94c-1.37,0-2.06-.93-2.06-2.78a7.78,7.78,0,0,1,2.16-5.63,9.4,9.4,0,0,1,5-2.82A50,50,0,0,0,198.5,22.54Z"/><path class="cls-4" d="M30.36,24.89a1.85,1.85,0,0,0-.2-.51,1.45,1.45,0,0,0-.66-.59c-.85-.28-2.55,2.63-4.3,3.8h0l-.37.22a2.75,2.75,0,0,1-.36.15l-.15,0h0l-.12,0h-.14l-.14,0c-.73-.27-.83-1.78-.83-2.5,0-.55.05-1.28.14-2.2l.12-1.05c0-.12,0-.23,0-.34l.09-.7.06-.39.09-.62.06-.4c0-.2.06-.4.1-.6l.06-.39c0-.2.08-.4.11-.59S24,18,24,17.84s.08-.42.13-.63l.06-.31c.06-.3.13-.59.2-.89v0h0a7.3,7.3,0,0,1,1.11-2.52l.19-.27a14.12,14.12,0,0,0,.84-1.38,7.44,7.44,0,0,0,.63-1.53,5.79,5.79,0,0,0,.26-1.7,3.94,3.94,0,0,0-.8-2.06c-.6-1-1.24-1.44-1.94-1.44a1.78,1.78,0,0,0-1.3.79C22.11,7.45,21,10.4,20,15.05l-1-.14c-1-.12-1.88-.14-2.07-.14h-.42l-.35,0h0a9.15,9.15,0,0,0-5.05,2.38,12.16,12.16,0,0,0-4.07,9.68A5.23,5.23,0,0,0,8.6,30.73a5.54,5.54,0,0,0,4.14,1.59,8.32,8.32,0,0,0,2.76-.44h0a6.85,6.85,0,0,0,1.07-.48h0l.46-.28.06,0c.15-.11.29-.21.43-.33h0a5.22,5.22,0,0,0,.43-.39l0,0c.12-.12.24-.24.35-.37l.1-.12q.13-.15.27-.33l.09-.13a4.07,4.07,0,0,0,.33-.48c.08.32.71,2.69,2.6,3.25l.26.06h.07l.21,0h.53l.37,0c.57-.07,1.82-.34,4.12-2.51C30.25,26.94,30.44,25.28,30.36,24.89Zm-11-6.05c-.16,1.06-.28,2.07-.36,3.05,0,.5-.08,1-.1,1.45A6.12,6.12,0,0,1,18,26.26a4.43,4.43,0,0,1-1.11,1.26l-.3.21a2.26,2.26,0,0,1-.26.16l0,0a5.35,5.35,0,0,1-.59.29h0a3.48,3.48,0,0,1-1.28.26c-1.37,0-2.06-.93-2.06-2.79A7.75,7.75,0,0,1,14.55,20a10.19,10.19,0,0,1,1.27-1.12h0a8.23,8.23,0,0,1,.78-.53l.13-.08.34-.19L17.3,18l.3-.15.52-.22.22-.07.42-.14.2-.06.63-.15C19.49,17.77,19.4,18.31,19.33,18.84Z"/></g></g></svg>