<svg xmlns="http://www.w3.org/2000/svg" xmlns:xlink="http://www.w3.org/1999/xlink" viewBox="0 0 287.32 214.96"><defs><style>.cls-1{isolation:isolate;}.cls-12,.cls-2{fill:#1e1a19;}.cls-3{fill:#f4d98f;}.cls-4{opacity:0.05;}.cls-5{fill:url(#Gradiente_sem_nome_30);}.cls-6{fill:url(#Gradiente_sem_nome_30-2);}.cls-7{fill:url(#Gradiente_sem_nome_26);}.cls-8{fill:#7dbdcd;}.cls-9{fill:url(#Gradiente_sem_nome_30-3);}.cls-10{fill:url(#Gradiente_sem_nome_26-2);}.cls-11{fill:#405978;}.cls-12{opacity:0.32;mix-blend-mode:multiply;}.cls-13{fill:#853686;}.cls-14{fill:#fff;}</style><linearGradient id="Gradiente_sem_nome_30" x1="70.49" y1="66.61" x2="217.34" y2="66.61" gradientUnits="userSpaceOnUse"><stop offset="0" stop-color="#a71f62"/><stop offset="1" stop-color="#921f78"/></linearGradient><linearGradient id="Gradiente_sem_nome_30-2" x1="201.33" y1="146.05" x2="256.71" y2="146.05" xlink:href="#Gradiente_sem_nome_30"/><linearGradient id="Gradiente_sem_nome_26" x1="30.64" y1="145.75" x2="86.45" y2="145.75" gradientUnits="userSpaceOnUse"><stop offset="0" stop-color="#921f78"/><stop offset="0.42" stop-color="#971f73"/><stop offset="0.92" stop-color="#a41f65"/><stop offset="1" stop-color="#a71f62"/></linearGradient><linearGradient id="Gradiente_sem_nome_30-3" x1="62.07" y1="44.89" x2="225.32" y2="44.89" xlink:href="#Gradiente_sem_nome_30"/><linearGradient id="Gradiente_sem_nome_26-2" x1="69.45" y1="136.8" x2="82.07" y2="136.8" xlink:href="#Gradiente_sem_nome_26"/></defs><title>Telas de login + cadastro1</title><g class="cls-1"><g id="Camada_1" data-name="Camada 1"><path class="cls-2" d="M113.7,161.66l62.1,5.91-.15,8.37c-.09,5,2,13,3.93,19.05l-66.07-5.87a58.63,58.63,0,0,0,1.37-12.35,76,76,0,0,0-1.18-15.13m-7.44-6.31s3.28,7.8,3,21.34S105.57,194,105.57,194l82.06,7.29s-6.53-17.53-6.39-25.27l.24-13.54-75.21-7.16Z"/><path class="cls-3" d="M110.73,155.42s2.91,7.79,2.67,21.33S110,194.11,110,194.11l73.12,7.13s-5.79-17.52-5.65-25.25l.24-13.54Z"/><path class="cls-4" d="M142.21,158.72c2.61,2.64,5.12,5.38,7.57,8.2,5.77,6.62,10.94,13.71,16.29,20.67a63.45,63.45,0,0,1,8.07,12.77l9,.88s-5.79-17.52-5.65-25.25l.24-13.54Z"/><path class="cls-2" d="M53.88,90.58a9.38,9.38,0,0,1,1.55-4.13c.23-1,0-2.11.14-3.15l0-1.48c.16-.34,0-.71.11-1.06l.05-1c.17-.27,0-.58.12-.86a74.11,74.11,0,0,1,2.3-12.48A86.6,86.6,0,0,1,60.87,58c1-2.76,2.12-5.51,3.41-8.15A89.14,89.14,0,0,1,73.2,35.39c1.38-1.83,2.83-3.61,4.39-5.31s2.83-3.25,4.41-4.71c2.72-2.5,5.5-4.93,8.46-7.16a87.67,87.67,0,0,1,15.08-9.12,89.81,89.81,0,0,1,17.61-6.21A106.23,106.23,0,0,1,133.68,1c.27-.13.59.05.85-.13l.67,0c.33-.14.7.06,1-.13l1,0c.39-.12.81.08,1.19-.12l1.52,0c.91-.14,1.84.07,2.75-.11h2.48c1,.21,1.93,0,2.88.12l1.51,0c.38.19.81,0,1.2.12l1,.05c.27.16.59,0,.87.12a91.78,91.78,0,0,1,20.15,4.56,89.35,89.35,0,0,1,23.9,12.83,87.69,87.69,0,0,1,31.16,44,91.14,91.14,0,0,1,2.89,12.41c.32,1.93.54,3.87.86,5.79.11.29,0,.61.12.89l.06,1.14c.12.45-.08.92.12,1.36a3.68,3.68,0,0,0,.79,2.88,7.69,7.69,0,0,1,1.58,5q0,12.61,0,25.22a4.32,4.32,0,0,0,.66,2.44,31.83,31.83,0,0,0,19.26,14.35,16.48,16.48,0,0,0,4.95.73c.45.19.93,0,1.38.13l2.36,0c.29.17.6.06.9.08s.43.12.33.42a9.4,9.4,0,0,0-.22,2.34c-.17.27,0,.6-.13.88a36.92,36.92,0,0,1-5.64,15.93c-6.57,10-15.83,16-27.75,17.24-12.84,1.37-23.62-3.12-32.36-12.57-.45-.49-.68-.41-1.14-.08a110.34,110.34,0,0,1-27.13,14.79,71.6,71.6,0,0,1-22,4.23,77.27,77.27,0,0,1-33.76-6.3,135.93,135.93,0,0,1-13.73-6.29,84.15,84.15,0,0,1-9.82-6.43c-.48-.37-.71-.39-1.14.09-8.24,9.15-18.57,13.61-30.82,12.65-15.36-1.2-26.1-9.26-32.35-23.32a36.35,36.35,0,0,1-2.32-7.69c-.26-1.29-.29-2.63-.43-4-.12-.27.06-.59-.12-.85l0-.67c-.1-.3.05-.4.33-.42s.61.09.9-.08l2.36,0c.46-.14.95.05,1.4-.12a27.23,27.23,0,0,0,9.34-2.24,30.05,30.05,0,0,0,8.73-5.48,29,29,0,0,0,6.44-8c.33-.63.74-1.22,1-1.89a1.81,1.81,0,0,0,.08-.91q0-12.21,0-24.42A3,3,0,0,1,53.88,90.58Z"/><path class="cls-3" d="M93.23,148.65a87.29,87.29,0,0,1-6.1-8,67.49,67.49,0,0,1-8.33-17.86,3,3,0,0,1,.9-3.46A36.83,36.83,0,0,0,91.64,96.61a35.79,35.79,0,0,0-.69-13.43c-.15-.62-.11-.77.58-.67a66.93,66.93,0,0,0,19.38,0,65.91,65.91,0,0,0,26.69-10,66.38,66.38,0,0,0,21-21.73c.14-.23.21-.53.56-.7l.59,1.73Q168.79,78,193.51,90.66c1,.53,2.09,1,3.15,1.45a.79.79,0,0,1,.56.81A37.23,37.23,0,0,0,209,119a1.14,1.14,0,0,1,.38,1,9.43,9.43,0,0,0,.52,3.74,1.23,1.23,0,0,1-.08.89,68.93,68.93,0,0,1-107.66,32.39A32,32,0,0,1,99,154.27a3,3,0,0,1,2.29-.23,49.27,49.27,0,0,0,7.08-.14,43.5,43.5,0,0,0,5-.44,2.24,2.24,0,0,0,2.05-1.62,2.13,2.13,0,0,0-2.3-2.68c-1.88.16-3.75.38-5.64.48a71.68,71.68,0,0,1-8.61,0,46.14,46.14,0,0,1-4.7-.52C93.8,149.06,93.39,149.08,93.23,148.65Z"/><path class="cls-5" d="M161.45,28.6c-1.88,4.5-3.54,9.09-5.6,13.51a60.22,60.22,0,0,1-44.32,33.76,65.92,65.92,0,0,1-8.31.85,66,66,0,0,1-20.35-2.65c-.79-.21-1.58-.38-2.54-.61.39.91.72,1.71,1.08,2.51a46.68,46.68,0,0,1,3.39,9.18,30.61,30.61,0,0,1-5.51,25.12c-.13.18-.29.33-.49.55a1.62,1.62,0,0,1-.12-.93c0-6.18,0-12.36,0-18.54A8.47,8.47,0,0,0,71.24,83c-.82-.12-.81-.46-.69-1a74.81,74.81,0,0,1,4.5-14.67A72.41,72.41,0,0,1,92.53,42.43,74,74,0,0,1,127.22,24.2a76.81,76.81,0,0,1,49.45,5.56,73.54,73.54,0,0,1,40.62,52.36c.1.52.11.79-.59.92a8.68,8.68,0,0,0-7.32,9q0,8.25,0,16.51v1a29.15,29.15,0,0,1-2.93-5.06,30.43,30.43,0,0,1-2.8-13.62,19.15,19.15,0,0,1,.13-2c.09-.68-.17-1-.82-1.22a59.27,59.27,0,0,1-9.81-4.53,60.63,60.63,0,0,1-29.88-44.44c-.46-3.37-1-6.74-1.51-10.1C161.66,28.46,161.56,28.47,161.45,28.6Z"/><path class="cls-6" d="M226.42,165.38a31.92,31.92,0,0,1-20.58-7.76,36.34,36.34,0,0,1-4.1-4.25c-.54-.64-.54-1,0-1.65a73.71,73.71,0,0,0,13-21.91c.25-.66.5-.89,1.21-.63a7.31,7.31,0,0,0,2.51.24c2.34,0,4.68,0,7,0a8.32,8.32,0,0,0,6-2.4c.44-.42.65-.33,1,.07A37.58,37.58,0,0,0,254,140.26c.69.15,1.38.28,2.08.37.53.07.69.21.54.8a30.51,30.51,0,0,1-6.1,12.32,31.32,31.32,0,0,1-18.66,11.08A43,43,0,0,1,226.42,165.38Z"/><path class="cls-7" d="M86.45,152a16.78,16.78,0,0,1-2.82,3.56A29.79,29.79,0,0,1,65.1,165C54.38,166.25,45.18,163,37.83,155a31.28,31.28,0,0,1-7.1-13.2c-.24-.87,0-1.07.81-1.19A36.76,36.76,0,0,0,48.8,133.1a36.16,36.16,0,0,0,6.51-6.49c.17-.22.29-.61.67-.18a8.91,8.91,0,0,0,7.83,3h.42c.41.11.43.49.52.8a30.3,30.3,0,0,0,8.76,14.29,33.41,33.41,0,0,0,11.54,6.86C85.54,151.52,86.12,151.53,86.45,152Z"/><path class="cls-8" d="M143.22,13.34a77.66,77.66,0,0,1,54.71,21.47A77,77,0,0,1,213,54.69a76,76,0,0,1,7.65,22.25c.31,1.71.49,3.44.69,5.17,0,.28.23.77-.31.8s-.45-.46-.5-.75A68.46,68.46,0,0,0,218,72,77,77,0,0,0,196.7,39.44a76.07,76.07,0,0,0-16.6-11.53,77.85,77.85,0,0,0-17.92-6.65,75.76,75.76,0,0,0-9.79-1.66A79,79,0,0,0,142,19.13,81.68,81.68,0,0,0,122.59,22a76.75,76.75,0,0,0-14.15,5.49,78.5,78.5,0,0,0-15.3,10.16A77.51,77.51,0,0,0,76.12,58a76.16,76.16,0,0,0-8.81,23.62c-.05.27-.08.56-.13.83s-.13.5-.48.45-.29-.31-.27-.57a45.9,45.9,0,0,1,.7-5.25A75.61,75.61,0,0,1,80.4,45.66,84.25,84.25,0,0,1,86.73,38a76.22,76.22,0,0,1,14.53-12.15,78.68,78.68,0,0,1,31.46-11.75A58.8,58.8,0,0,1,143.22,13.34Z"/><path class="cls-9" d="M144.3,6.79a80.47,80.47,0,0,1,33.44,7.51A82.21,82.21,0,0,1,199.54,29,81,81,0,0,1,224.46,76c.32,2,.6,4.06.79,6.11,0,.25.24.72-.25.73s-.34-.45-.37-.73a77.9,77.9,0,0,0-15.42-39.5A80.19,80.19,0,0,0,182.1,19.5,81.67,81.67,0,0,0,87.49,32.65,79.31,79.31,0,0,0,64.64,73a64.42,64.42,0,0,0-1.45,9.17c0,.29,0,.64-.34.79s-.82-.06-.77-.68a76.26,76.26,0,0,1,1.2-9A83.05,83.05,0,0,1,76.89,41.41a80.48,80.48,0,0,1,27-24.16A83.53,83.53,0,0,1,130.15,8a73.81,73.81,0,0,1,10.66-1.11C141.85,6.85,142.89,6.8,144.3,6.79Z"/><path class="cls-2" d="M86.45,152A35.44,35.44,0,0,1,74.94,146a30.54,30.54,0,0,1-10.36-15.65,2.56,2.56,0,0,0-.35-.94c.07-1.12-.69-2.12-.5-3.26a1.54,1.54,0,0,1-.27-1.12q0-18.85,0-37.71a1.52,1.52,0,0,1,.27-1.12c0-1.29-.19-1.19,1.24-1.2h2.27c1.5,0,1.18,0,1.24,1.21a2.19,2.19,0,0,1,.26,1.55q0,18.24,0,36.48a4.28,4.28,0,0,1-.1,1.92,24.92,24.92,0,0,0,.81,3.56c.39.18.42.58.54.92a25.39,25.39,0,0,0,6,9.51,23.88,23.88,0,0,0,5.19,4,1.67,1.67,0,0,1,.87.77,38.4,38.4,0,0,0,10.78,3.72,2.19,2.19,0,0,0,.42,0,40.92,40.92,0,0,0,8,.85,74.91,74.91,0,0,0,11.71-.61,2.43,2.43,0,0,1,2.76,2,2.38,2.38,0,0,1-2.15,2.8c-2.74.32-5.49.51-8.25.63-2.11.09-4.22-.06-6.33-.07A55.46,55.46,0,0,1,86.45,152Z"/><path class="cls-8" d="M223.77,86.18c1.45,0,2.93-.19,4.28.61a5.41,5.41,0,0,1,3,4.86q0,14.5,0,29a5.44,5.44,0,0,1-5.5,5.51c-.59,0-1.18,0-1.78,0a1.53,1.53,0,0,1-.28-1.12q0-18.86,0-37.72A1.5,1.5,0,0,1,223.77,86.18Z"/><path class="cls-8" d="M68.64,126.14a5.2,5.2,0,0,1-.17-1.25q0-19.35,0-38.7c1.77-.11,3.5-.06,4.95,1.19a5,5,0,0,1,2,3.86q0,14.93,0,29.87a5.34,5.34,0,0,1-5.08,5Z"/><path class="cls-8" d="M63.73,86.18q0,20,0,39.95a5.8,5.8,0,0,1-5.11-1.63,5.31,5.31,0,0,1-1.5-3.74q0-14.55,0-29.11a5.33,5.33,0,0,1,5.5-5.48Z"/><path class="cls-8" d="M219,126.14a5.5,5.5,0,0,1-5.61-2.66,5.23,5.23,0,0,1-.81-2.88q0-14.37,0-28.75A5.61,5.61,0,0,1,219,86.18a2.13,2.13,0,0,1,.28,1.54q0,17.63,0,35.27c0,.7,0,1.41,0,2.11A1.45,1.45,0,0,1,219,126.14Z"/><path class="cls-2" d="M219,126.14q0-20,0-40h4.76q0,20,0,40Z"/><path class="cls-10" d="M82,144.93a31.07,31.07,0,0,1-5.57-4.07,26,26,0,0,1-6.77-10.53l-.23-.63c.11-.39.43-.3.7-.29a7,7,0,0,0,3.12-.62c.57-.26.71,0,.88.43a71.76,71.76,0,0,0,4.52,9.88c1,1.75,2,3.46,3.08,5.13C81.87,144.43,82.19,144.59,82,144.93Z"/><path class="cls-11" d="M161.45,28.6c0-.16,0-.38.2-.37s.1.24.11.37Z"/><path class="cls-2" d="M144.47,134.94q13.75,0,27.5,0c.73,0,.91.09.63.85a41.47,41.47,0,0,1-10.87,16.7,24.93,24.93,0,0,1-17.22,7,24.42,24.42,0,0,1-16-5.88,39.36,39.36,0,0,1-11.6-16.48c-.26-.68-.49-1.37-.74-2.06a7.71,7.71,0,0,1,2.23-.09Z"/><path class="cls-2" d="M113.17,109.69c0-1.27,0-2.54,0-3.81a4.84,4.84,0,1,1,9.67.11q0,4.44,0,8.88a4.83,4.83,0,0,1-9.66.22c0-.7,0-1.41,0-2.11A4.68,4.68,0,0,1,113.17,109.69Z"/><path class="cls-2" d="M175.85,113a17.11,17.11,0,0,1-.16,3,4.88,4.88,0,0,1-5.17,3.69,4.79,4.79,0,0,1-4.36-4.77q0-4.48,0-9a4.79,4.79,0,0,1,4.71-4.85,4.86,4.86,0,0,1,5,4.64c.06,1.35,0,2.7,0,4.05A4.32,4.32,0,0,1,175.85,113Z"/><path class="cls-12" d="M177.2,123.92a13.39,13.39,0,0,1,7.39,1.94c2.92,2,2.89,5-.11,6.87a13.51,13.51,0,0,1-8.51,1.76,12.14,12.14,0,0,1-6-1.94c-2.71-1.88-2.71-4.75,0-6.62A13.15,13.15,0,0,1,177.2,123.92Z"/><path class="cls-12" d="M110.14,134.62a15,15,0,0,1-6.84-1.55,7,7,0,0,1-2.18-1.84,3.54,3.54,0,0,1,.8-4.89,11.31,11.31,0,0,1,5.49-2.23,15.1,15.1,0,0,1,8.43,1,6.38,6.38,0,0,1,2.4,1.67c1.69,2,1.32,4.16-1,5.76a10.94,10.94,0,0,1-5.36,1.87A8.87,8.87,0,0,1,110.14,134.62Z"/><path class="cls-2" d="M170.93,85.68c5.4,0,10,1.76,13.49,6.12a3.29,3.29,0,0,1,.18,4A3.25,3.25,0,0,1,181,97a3,3,0,0,1-1.52-1c-2.53-3.25-6-4.06-9.87-3.8a19.57,19.57,0,0,0-4.22.82,3.17,3.17,0,0,1-4-2.14,3.2,3.2,0,0,1,2.06-4,19.8,19.8,0,0,1,3.36-.82A24.8,24.8,0,0,1,170.93,85.68Z"/><path class="cls-2" d="M118,85.69a24.64,24.64,0,0,1,7.31,1.13,3.2,3.2,0,0,1,2.21,4.12,3.23,3.23,0,0,1-4.16,2,17.44,17.44,0,0,0-7.08-.73,9.9,9.9,0,0,0-6.79,3.67,3.22,3.22,0,1,1-5-4,15.66,15.66,0,0,1,11-6c.5-.06,1-.11,1.51-.14C117.36,85.68,117.7,85.69,118,85.69Z"/><path class="cls-2" d="M113.17,109.69V113a6.44,6.44,0,0,1-6.25-4,4.5,4.5,0,0,1-.22-1.15,1.5,1.5,0,0,1,1.26-1.72,1.57,1.57,0,0,1,1.9,1.24A3.08,3.08,0,0,0,113.17,109.69Z"/><path class="cls-2" d="M175.85,113l0-3.16a5,5,0,0,0,2.07-.67,2.35,2.35,0,0,0,1.15-1.58,1.59,1.59,0,0,1,1.91-1.44,1.57,1.57,0,0,1,1.28,1.94,4.59,4.59,0,0,1-1.47,3A6.82,6.82,0,0,1,175.85,113Z"/><path class="cls-13" d="M93.25,66.88a56.41,56.41,0,0,0,28-7.26,63,63,0,0,0,11.38-8.14,77.86,77.86,0,0,0,15-18.35,41.39,41.39,0,0,0,2.87-5.46,1.63,1.63,0,0,1,2-1,1.52,1.52,0,0,1,1.05,2.14,41.63,41.63,0,0,1-3.12,6,81.5,81.5,0,0,1-15,18.52,66.2,66.2,0,0,1-13.14,9.44,60.83,60.83,0,0,1-14.6,5.68,59.52,59.52,0,0,1-9.13,1.51,72.38,72.38,0,0,1-7.84.3,3.17,3.17,0,0,1-1.63-.32,1.62,1.62,0,0,1,.87-3C91.05,66.86,92.15,66.88,93.25,66.88Z"/><path class="cls-13" d="M97.62,57.22a39.87,39.87,0,0,0,21.77-6.5,45.4,45.4,0,0,0,8.52-7,54.64,54.64,0,0,0,9.78-14,1.62,1.62,0,0,1,2.18-1,1.69,1.69,0,0,1,.78,2.41,55.43,55.43,0,0,1-3.73,6.53,57.59,57.59,0,0,1-8.18,9.86,46.68,46.68,0,0,1-17.37,10.76,42,42,0,0,1-9.45,2.06,51.33,51.33,0,0,1-6.49.3c-1.55,0-2.39-1.07-1.93-2.32a1.58,1.58,0,0,1,1.59-1C95.93,57.2,96.78,57.22,97.62,57.22Z"/><path class="cls-13" d="M209.62,80.07A52.63,52.63,0,0,1,203,78.6,41.93,41.93,0,0,1,187.47,70a49.59,49.59,0,0,1-10.69-13.4,54.35,54.35,0,0,1-5.09-12.39,1.31,1.31,0,0,1,0-1,.72.72,0,0,1,.79-.38.92.92,0,0,1,.77.8A41,41,0,0,0,174.66,48a53.32,53.32,0,0,0,9.56,16.3,40.82,40.82,0,0,0,18.57,12.43,44.08,44.08,0,0,0,6.89,1.6c.5.08.87.37.83.89A.85.85,0,0,1,209.62,80.07Z"/><path class="cls-13" d="M181,45.86c.49,0,.66.32.77.72a37.82,37.82,0,0,0,5.72,12.07,29.48,29.48,0,0,0,16.91,11.88c1,.26,2,.39,3,.58.54.11,1,.33.9,1s-.59.78-1.17.68a30.4,30.4,0,0,1-15.25-6.91,37.64,37.64,0,0,1-11.67-18.8C179.94,46.26,180.24,45.84,181,45.86Z"/><path class="cls-13" d="M208.52,66.48a22.15,22.15,0,0,1-10.31-4.14,27.63,27.63,0,0,1-10.06-15c-.17-.58-.3-1.19.46-1.38s1,.41,1.14,1c1.92,6.18,5.2,11.4,10.81,14.91a19.36,19.36,0,0,0,7.45,2.8,3.19,3.19,0,0,1,.9.21c.36.17.69.42.56.91A.91.91,0,0,1,208.52,66.48Z"/><path class="cls-14" d="M123.54,139.76h40.94c1,0,1,0,.52.84a33,33,0,0,1-8.32,9.69,19.47,19.47,0,0,1-24.88-.37,34.29,34.29,0,0,1-8.06-9.7A4.89,4.89,0,0,1,123.54,139.76Z"/><rect class="cls-14" y="188.23" width="287.32" height="69.3"/><path class="cls-3" d="M241,193.07s-12.33-6.57-15.54-5.7-6,3.25-3,7.7,16.51,5.05,16.51,5.05Z"/><path class="cls-2" d="M239.93,201.56l-1.1,0c-1.45-.07-14.29-.78-17.6-5.66-1.47-2.17-1.88-4.17-1.22-5.94s2.47-3.19,5-3.88c3.48-.93,13.56,4.22,16.56,5.82l1,.53Zm-13.76-12.89a1.6,1.6,0,0,0-.4,0c-1.65.44-2.8,1.23-3.15,2.16-.41,1.09.28,2.45.92,3.4,1.77,2.61,9.3,4,14.33,4.38l1.42-4.88C234.18,191.14,228.24,188.67,226.17,188.67Z"/><path class="cls-3" d="M271.75,190.36c-.2-1.86-.93-4.62-4.2-8s-6.93-3.91-11.15-4.59c-1.46-.24-18.64-2.87-22.32,4.18-.28.54-1.39,4.18-1.39,15.34v-1.39l37.66,4.18Z"/><rect class="cls-3" x="231.3" y="184.56" width="11.16" height="24.78" rx="4" ry="4"/><path class="cls-3" d="M265.2,209.32h0c-3.06-.17-5.4-2.43-5.2-5l1.2-15.31c.2-2.59,2.88-4.57,5.94-4.4h0c3.06.17,5.4,2.43,5.2,5l-1.2,15.31C270.93,207.51,268.26,209.49,265.2,209.32Z"/><rect class="cls-3" x="241.06" y="183.38" width="11.16" height="29.5" rx="4" ry="4"/><path class="cls-3" d="M260.22,188a5,5,0,0,0-1.23,2.4,2,2,0,0,1-2.45.92,1.86,1.86,0,0,1-2.5-.43c-.39-.75-.74-1.6-1.13-2.4a2.46,2.46,0,0,0-2-.06,4,4,0,0,0-.1.8v20.06c0,2.6,2.51,4.72,5.58,4.72s5.58-2.12,5.58-4.72V189.28a3.85,3.85,0,0,0-.28-1.35A4.79,4.79,0,0,0,260.22,188Z"/><path class="cls-2" d="M268.55,181.42c-.87-.89-4.34-4.21-13.54-5-4.92-.43-18.12-1.57-22.32,5.58-.88,1.49-1.05,3.59-1.37,7.71a97.43,97.43,0,0,0,0,14.92c0,2.6,2.51,4.72,5.58,4.72a6,6,0,0,0,4.18-1.64v.46c0,2.6,2.51,4.72,5.58,4.72a5.93,5.93,0,0,0,4.52-2,5.59,5.59,0,0,0,5.24,3.16c3.07,0,5.58-2.12,5.58-4.72V208.2a6.09,6.09,0,0,0,3.21,1.12h.37a9.16,9.16,0,0,0,3.91-1c1.39-.75,2.15-3.26,2.67-11.27.51-7.75.07-9.59-.64-11.22A15,15,0,0,0,268.55,181.42ZM266.27,207a2.66,2.66,0,0,1-2.63-.25,3,3,0,0,1-.86-2.3c-.18-5.57.56-10.71.25-15.1a1.93,1.93,0,1,0-3.84.42v19.58a2.83,2.83,0,0,1-5.58,0V190.05a2.1,2.1,0,0,0-4.18-.19v18.3a2.83,2.83,0,0,1-5.58,0q0-10.14-.09-20.28a1.54,1.54,0,0,0-1.34-1.45A1.56,1.56,0,0,0,240.8,188c-.06.61-.14,1.57-.19,2.76-.32,7.45-.2,9.83-.74,13.63a2.93,2.93,0,0,1-5.78.23v-7.79q0-.62,0-1.26,0-.45,0-.89c.17-9.51,1.21-12,1.21-12.06,2.6-5,14.78-4.44,20.86-3.45,1,.17,6.49.9,10.37,4.19a7.53,7.53,0,0,1,2.84,4,9.72,9.72,0,0,1,.12,3.46c-.68,5.95-.12,7-1.2,12C267.81,205.24,267.36,206.49,266.27,207Z"/><path class="cls-3" d="M46.37,188s12.33-6.57,15.54-5.7,6,3.25,3,7.7-16.51,5.05-16.51,5.05Z"/><path class="cls-2" d="M44.72,187.33l1-.53c3-1.6,13.08-6.75,16.56-5.82,2.57.69,4.36,2.07,5,3.88s.25,3.77-1.22,5.94c-3.31,4.88-16.15,5.6-17.6,5.66l-1.1,0Zm3.32,1.4,1.42,4.88c5-.37,12.55-1.76,14.33-4.38.64-1,1.33-2.31.92-3.4-.35-.93-1.49-1.72-3.15-2.16a1.6,1.6,0,0,0-.4,0C59.08,183.62,53.15,186.09,48,188.73Z"/><path class="cls-3" d="M15.57,185.31c.2-1.86.93-4.62,4.2-8s6.93-3.91,11.15-4.59c1.46-.24,18.64-2.87,22.32,4.18.28.54,1.39,4.18,1.39,15.34v-1.39L17,195.07Z"/><rect class="cls-3" x="44.86" y="179.51" width="11.16" height="24.78" rx="4" ry="4" transform="translate(100.88 383.81) rotate(180)"/><path class="cls-3" d="M22.13,204.27h0c3.06-.17,5.4-2.43,5.2-5l-1.2-15.31c-.2-2.59-2.88-4.57-5.94-4.4h0c-3.06.17-5.4,2.43-5.2,5l1.2,15.31C16.39,202.46,19.06,204.44,22.13,204.27Z"/><rect class="cls-3" x="35.1" y="178.33" width="11.16" height="29.5" rx="4" ry="4" transform="translate(81.36 386.17) rotate(180)"/><path class="cls-3" d="M27.11,183a5,5,0,0,1,1.23,2.4,2,2,0,0,0,2.45.92,1.86,1.86,0,0,0,2.5-.43c.39-.75.74-1.6,1.13-2.4a2.46,2.46,0,0,1,2-.06,4,4,0,0,1,.1.8V204.3c0,2.6-2.51,4.72-5.58,4.72s-5.58-2.12-5.58-4.72V184.23a3.85,3.85,0,0,1,.28-1.35A4.79,4.79,0,0,1,27.11,183Z"/><path class="cls-2" d="M15.81,180.77c-.71,1.63-1.15,3.46-.64,11.22.53,8,1.29,10.52,2.67,11.27a9.16,9.16,0,0,0,3.91,1h.37a6.09,6.09,0,0,0,3.21-1.12v1.14c0,2.6,2.51,4.72,5.58,4.72a5.59,5.59,0,0,0,5.24-3.16,5.93,5.93,0,0,0,4.52,2c3.07,0,5.58-2.12,5.58-4.72v-.46a6,6,0,0,0,4.18,1.64c3.07,0,5.58-2.12,5.58-4.72a97.43,97.43,0,0,0,0-14.92c-.32-4.13-.5-6.22-1.37-7.71-4.2-7.15-17.4-6-22.32-5.58-9.2.8-12.67,4.12-13.54,5A15,15,0,0,0,15.81,180.77Zm3.2,17c-1.07-5-.52-6.05-1.2-12a9.72,9.72,0,0,1,.12-3.46,7.53,7.53,0,0,1,2.84-4c3.88-3.29,9.34-4,10.37-4.19,6.08-1,18.26-1.54,20.86,3.45,0,0,1,2.55,1.21,12.06q0,.44,0,.89,0,.63,0,1.26v7.79a2.93,2.93,0,0,1-5.78-.23c-.54-3.8-.42-6.18-.74-13.63-.05-1.18-.13-2.15-.19-2.76a1.56,1.56,0,0,0-1.63-1.57,1.54,1.54,0,0,0-1.34,1.45q0,10.14-.09,20.28a2.83,2.83,0,0,1-5.58,0v-18.3a2.1,2.1,0,0,0-4.18.19V204.3a2.6,2.6,0,0,1-2.79,2.36,2.6,2.6,0,0,1-2.79-2.36V184.72a1.93,1.93,0,1,0-3.84-.42c-.31,4.39.42,9.53.25,15.1a3,3,0,0,1-.86,2.3,2.66,2.66,0,0,1-2.63.25C20,201.44,19.52,200.19,19,197.8Z"/></g></g></svg>